<svg id="Layer_1" data-name="Layer 1" xmlns="http://www.w3.org/2000/svg" viewBox="0 0 1000 1000"><defs><style>.cls-1{fill:#ff1d47;}.cls-2{fill:#fff;}</style></defs><title>Logo_circle</title><circle class="cls-1" cx="500" cy="500" r="500"/><polygon class="cls-2" points="291.7 562.49 484.24 673.96 291.7 785.43 291.7 562.49"/><polygon class="cls-2" points="492.12 687.47 492.12 910.41 299.58 798.94 492.12 687.47"/><polygon class="cls-2" points="507.88 437.51 700.42 548.98 507.88 660.45 507.88 437.51"/><polygon class="cls-2" points="507.88 687.47 700.42 798.94 507.88 910.41 507.88 687.47"/><polygon class="cls-2" points="291.7 214.57 484.24 326.04 291.7 437.51 291.7 214.57"/><polygon class="cls-2" points="492.12 312.53 299.58 201.06 492.12 89.59 492.12 312.53"/><polygon class="cls-2" points="492.12 562.49 299.58 451.02 492.12 339.55 492.12 562.49"/><polygon class="cls-2" points="507.88 312.53 507.88 89.59 700.42 201.06 507.88 312.53"/><polygon class="cls-2" points="708.3 214.57 708.3 437.51 515.76 326.04 708.3 214.57"/><polygon class="cls-2" points="708.3 785.43 515.76 673.96 708.3 562.49 708.3 785.43"/></svg>