<svg id="Layer_1" data-name="Layer 1" xmlns="http://www.w3.org/2000/svg" viewBox="0 0 416.6 820.83"><defs><style>.cls-1{fill:#fff;}</style></defs><title>Logo</title><polygon class="cls-1" points="0 472.9 192.54 584.37 0 695.85 0 472.9"/><polygon class="cls-1" points="200.42 597.89 200.42 820.83 7.88 709.36 200.42 597.89"/><polygon class="cls-1" points="216.18 347.92 408.72 459.39 216.18 570.86 216.18 347.92"/><polygon class="cls-1" points="216.18 597.89 408.72 709.36 216.18 820.83 216.18 597.89"/><polygon class="cls-1" points="0 124.98 192.54 236.45 0 347.92 0 124.98"/><polygon class="cls-1" points="200.42 222.94 7.88 111.47 200.42 0 200.42 222.94"/><polygon class="cls-1" points="200.42 472.9 7.88 361.43 200.42 249.96 200.42 472.9"/><polygon class="cls-1" points="216.18 222.94 216.18 0 408.72 111.47 216.18 222.94"/><polygon class="cls-1" points="416.6 124.98 416.6 347.92 224.06 236.45 416.6 124.98"/><polygon class="cls-1" points="416.6 695.85 224.06 584.37 416.6 472.9 416.6 695.85"/></svg>